<svg id="Camada_1" data-name="Camada 1" xmlns="http://www.w3.org/2000/svg" viewBox="0 0 440 464"><defs><style>.cls-1{fill:#c1c1c1;}.cls-2{fill:#7289d9;}.cls-3{fill:#ad3b3b;}</style></defs><rect class="cls-1" x="39.56" y="82" width="391" height="290.99" transform="translate(-37.11 -0.51) rotate(-1.56)"/><path class="cls-2" d="M80.43,418.72H353.6l-13-41.12c1.93,1.64,111.92,93.4,111.92,93.4V69.65c-1.31-25-23.38-46.15-50.73-46.15l-321.23.06C53.19,23.56,31,44.79,31,69.74V372.55c0,26.31,22.15,46.17,49.43,46.17ZM282.51,129.46l-.64.23.23-.23Zm-146.2,23.67C171.43,128.25,204,129.45,204,129.45L206.6,132c-43,10-62.45,28.66-62.45,28.66,2-.41,88.76-49.13,193.9,1.23,0,0-19.53-17.47-59.85-28.66l3.56-3.41c5.57,0,35.08,1,66.65,23.49,0,0,35.33,58.74,35.33,130.9-1.17-1.38-21.92,31.06-75.31,32.18,0,0-9-10-15.48-18.64,31.23-8.73,42.91-26.18,42.91-26.18-60.79,37.25-114.06,31.43-177.8,6.26a1.47,1.47,0,0,1-1.17-.56v-.11a1.56,1.56,0,0,0-1.17-.56h-1.15a65.46,65.46,0,0,0-6.51-3.73s11.66,17.45,41.65,26.18c-7.88,8.75-15.68,18.68-15.68,18.68C120.66,316.46,101.2,284,101.2,284c0-72.27,35.11-130.89,35.11-130.89Z" transform="translate(-31 -7)"/><path class="cls-2" d="M286,261.63a24.94,24.94,0,0,0,0-49.88v.05a24.92,24.92,0,0,0,0,49.83Z" transform="translate(-31 -7)"/><path class="cls-2" d="M197.48,261.63a24.94,24.94,0,0,0,.08-49.88l-.08.05a24.92,24.92,0,0,0,0,49.83Z" transform="translate(-31 -7)"/><circle class="cls-3" cx="370.08" cy="69.92" r="69.92"/></svg>